<svg xmlns="http://www.w3.org/2000/svg" fill="none" viewBox="0 0 24 24" id="Solr--Streamline-Svg-Logos" height="24" width="24">
  <desc>
    Solr Streamline Icon: https://streamlinehq.com
  </desc>
  <path fill="#201f26" d="M4.9685 14.264725c-0.27145 -0.144475 -0.5782 -0.246225 -0.9116 -0.302475 -0.3275 -0.055125 -0.66065 -0.083025 -0.990225 -0.083025 -0.269375 0 -0.541875 -0.02325 -0.8100825 -0.0691 -0.261155 -0.04445 -0.497655 -0.1264 -0.70336 -0.24355 -0.20015 -0.113925 -0.3656875 -0.273325 -0.492215 -0.47405 -0.12479 -0.197475 -0.187995 -0.459325 -0.187995 -0.77525 0.00602 -0.278975 0.070845 -0.517675 0.1928575 -0.7095 0.1236325 -0.194925 0.2852325 -0.3533 0.4800575 -0.470775 0.1998025 -0.120525 0.4303975 -0.209075 0.6854175 -0.26325 0.43422 -0.09215 0.89287 -0.1094 1.36007 -0.044225 0.182325 0.0257 0.362675 0.0712 0.535975 0.1352 0.170175 0.0631 0.33015 0.149575 0.4753 0.25665 0.1431 0.105925 0.2695 0.238825 0.375775 0.39485l0.0595 0.0874 0.4385 -0.1845 -0.093075 -0.1314c-0.11935 -0.16855 -0.25155 -0.3203 -0.393 -0.45135 -0.14435 -0.13325 -0.31395 -0.246575 -0.50425 -0.3364 -0.1879 -0.08855 -0.40285 -0.15675 -0.63925 -0.2027 -0.23395 -0.045375 -0.506675 -0.0683 -0.81065 -0.0683 -0.2916 0 -0.592705 0.03335 -0.89484 0.099325 -0.30665 0.06715 -0.5910725 0.17805 -0.8451675 0.3298 -0.259535 0.155125 -0.47346 0.36175 -0.6358725 0.614225 -0.1649575 0.256875 -0.2487675 0.573825 -0.2487675 0.942175 0 0.38665 0.077675 0.71575 0.23071 0.978075 0.15211 0.260675 0.35608 0.47195 0.6062375 0.62775 0.24495 0.1528 0.5307625 0.262675 0.84945 0.32645 0.311395 0.062275 0.63725 0.093875 0.968675 0.093875 0.263475 0 0.54245 0.019925 0.829325 0.059625 0.2791 0.03855 0.53885 0.11635 0.772 0.231175 0.227125 0.112175 0.4164 0.2681 0.56225 0.463625 0.1411 0.189275 0.212775 0.44485 0.212775 0.759625 0 0.282675 -0.069 0.5237 -0.2048 0.7169 -0.1403 0.199575 -0.3225 0.3643 -0.541625 0.48955 -0.2239 0.1279 -0.4773 0.22215 -0.7536 0.2799 -0.280725 0.0588 -0.55855 0.08855 -0.825625 0.08855 -0.448325 0 -0.891345 -0.08565 -1.3166475 -0.254675 -0.4234525 -0.16795 -0.79898 -0.420425 -1.11593 -0.75035l-0.085085 -0.08855L0.25 16.639075l0.098165 0.098175c0.3129 0.313125 0.7015075 0.58575 1.15471 0.81055 0.45876 0.2277 1.002025 0.343125 1.6145 0.343125 0.291275 0 0.60035 -0.03335 0.918925 -0.098975 0.322975 -0.0668 0.626025 -0.180825 0.9006 -0.3393 0.279 -0.1609 0.5111 -0.371475 0.690175 -0.6258 0.18395 -0.261275 0.27725 -0.588175 0.27725 -0.97215 0 -0.389075 -0.0874 -0.718525 -0.259875 -0.979225 -0.1703 -0.257 -0.39765 -0.462575 -0.67595 -0.61075Z" stroke-width="0.25"></path>
  <path fill="#201f26" d="M9.09295 17.480375c-0.31625 0 -0.605425 -0.065275 -0.859625 -0.194 -0.257575 -0.13025 -0.484925 -0.307575 -0.675925 -0.527425 -0.19205 -0.22075 -0.344625 -0.4789 -0.453425 -0.767375 -0.109625 -0.28975 -0.1718 -0.5935 -0.184425 -0.8976 0 -0.281175 0.0521 -0.5685 0.154675 -0.854075 0.102425 -0.28465 0.25165 -0.5443 0.4437 -0.77165 0.191475 -0.22655 0.4245 -0.4142 0.6927 -0.557975 0.2637 -0.141225 0.560525 -0.212875 0.882325 -0.212875 0.3026 0 0.588425 0.067025 0.84945 0.198975 0.26465 0.13395 0.497425 0.313375 0.692025 0.533325 0.19505 0.22085 0.350875 0.479125 0.463275 0.767725 0.11195 0.288225 0.16865 0.5899 0.16865 0.89655 0 0.28085 -0.052075 0.568275 -0.154525 0.853975 -0.102675 0.285225 -0.2519 0.54475 -0.443825 0.771875 -0.191125 0.2261 -0.4238 0.411875 -0.691675 0.552175 -0.263825 0.13835 -0.560975 0.208375 -0.883375 0.208375Zm1.918975 -4.326775c-0.22945 -0.2681 -0.5083 -0.4899 -0.829075 -0.65915 -0.325175 -0.17155 -0.6919 -0.258375 -1.0899 -0.258375 -0.36255 0 -0.7089 0.077675 -1.02945 0.230725 -0.318225 0.1521 -0.599625 0.36185 -0.836375 0.62325 -0.2358 0.26035 -0.424825 0.567 -0.5619 0.911375 -0.137275 0.34485 -0.206975 0.7125 -0.206975 1.09255 0 0.3592 0.06425 0.710775 0.191 1.044975 0.126525 0.333975 0.30665 0.637025 0.5354 0.901075 0.229775 0.2652 0.509225 0.482025 0.830575 0.644325 0.323775 0.163675 0.68565 0.250275 1.075425 0.257325h0.00485c0.368825 -0.00705 0.718075 -0.09005 1.038025 -0.246325 0.31765 -0.155125 0.598725 -0.3665 0.83545 -0.6279 0.2358 -0.26045 0.423225 -0.56375 0.5568 -0.901425 0.13395 -0.338475 0.2019 -0.699175 0.2019 -1.07205 0 -0.337675 -0.0624 -0.681825 -0.185225 -1.02275 -0.12305 -0.3409 -0.30155 -0.64965 -0.530525 -0.917625Z" stroke-width="0.25"></path>
  <path fill="#201f26" d="M14.1163 17.352275c-0.077575 0.01935 -0.145875 0.03405 -0.202825 0.043525 -0.059975 0.009975 -0.125025 0.02005 -0.19505 0.03 -0.064475 0.00915 -0.128275 0.013875 -0.189625 0.013875 -0.154775 0 -0.268675 -0.051275 -0.348425 -0.15685 -0.0881 -0.116225 -0.130925 -0.231625 -0.130925 -0.35295V10.17675h-0.461325v6.753125c0 0.2534 0.08 0.477625 0.2379 0.666075 0.163575 0.19575 0.3966 0.29485 0.6926 0.29485 0.092825 0 0.184975 -0.00545 0.274 -0.0161 0.0859 -0.0103 0.1631 -0.0206 0.232225 -0.0309 0.0706 -0.01065 0.152325 -0.026625 0.243075 -0.04745l0.1564 -0.036125 -0.20535 -0.43365 -0.102675 0.0257Z" stroke-width="0.25"></path>
  <path fill="#201f26" d="M16.106725 12.700775c-0.239975 0.16865 -0.45195 0.382825 -0.633325 0.639225v-1.02285h-0.461325v5.523025h0.461325V14.401625c0.0639 -0.22525 0.151875 -0.436525 0.261725 -0.6281 0.110775 -0.192975 0.24865 -0.362925 0.40955 -0.50495 0.160925 -0.141925 0.348225 -0.2571 0.556925 -0.342425 0.20815 -0.0852 0.443025 -0.134975 0.69815 -0.147825l0.122725 -0.006125v-0.45505h-0.1292c-0.491625 0 -0.92445 0.12905 -1.28655 0.383625Z" stroke-width="0.25"></path>
  <path fill="#c7402b" d="M22.69725 7.286825 18.87715 11.4168l4.80095 -2.21495c-0.14205 -0.732775 -0.4898 -1.391675 -0.98085 -1.915025Zm-2.83435 -1.228475c-0.529275 0 -1.033525 0.10615 -1.493325 0.297725l-0.512575 4.3195 2.561425 -4.57705c-0.1815 -0.02605 -0.36685 -0.040175 -0.555525 -0.040175Zm3.85325 3.38145L19.167 11.9856l4.268075 -0.50645c0.20235 -0.47055 0.314875 -0.988925 0.314875 -1.5337 0 -0.17155 -0.012275 -0.34 -0.0338 -0.50565Zm-1.6772 3.726925c0.5083 -0.34405 0.930375 -0.805475 1.22845 -1.345025l-4.000575 0.79445 2.772125 0.550575Zm-1.3863 -7.027925 -2.226875 4.826625 4.1309 -3.820775c-0.518025 -0.49835 -1.173225 -0.855 -1.904025 -1.00585Zm-0.464875 7.67915c0.4304 -0.03565 0.8409 -0.140875 1.220125 -0.305375l-2.2409 -0.2659 1.020775 0.571275ZM16.319675 8.347475c-0.1748 0.387 -0.288125 0.807325 -0.327475 1.2493l0.603675 1.078875 -0.2762 -2.328175Zm1.713075 -1.831575c-0.548475 0.293325 -1.018 0.714225 -1.369675 1.223225l0.5634 2.8366 0.806275 -4.059825Z" stroke-width="0.25"></path>
</svg>